<svg width="383" height="265" viewBox="0 0 383 265" fill="none" xmlns="http://www.w3.org/2000/svg">
<path d="M310 126.705L319.121 148.308L316.926 175.026C316.237 175.64 315.749 176.467 315.532 177.389C315.315 178.311 315.379 179.281 315.716 180.163C316.052 181.044 316.644 181.792 317.408 182.299C318.171 182.807 319.067 183.049 319.969 182.992C320.87 182.934 321.732 182.579 322.431 181.978C323.13 181.376 323.631 180.559 323.864 179.641C324.096 178.723 324.048 177.751 323.726 176.864C323.403 175.976 322.824 175.218 322.069 174.697L322.426 174.631L326 147.931L320.106 121L310 126.705Z" fill="#FFB8B8"/>
<path d="M284 265C293.389 265 301 264.105 301 263C301 261.895 293.389 261 284 261C274.611 261 267 261.895 267 263C267 264.105 274.611 265 284 265Z" fill="#E6E6E6"/>
<path d="M333 265C342.389 265 350 264.105 350 263C350 261.895 342.389 261 333 261C323.611 261 316 261.895 316 263C316 264.105 323.611 265 333 265Z" fill="#E6E6E6"/>
<path d="M371.5 265C377.851 265 383 264.552 383 264C383 263.448 377.851 263 371.5 263C365.149 263 360 263.448 360 264C360 264.552 365.149 265 371.5 265Z" fill="#E6E6E6"/>
<path d="M374.982 254.202C374.904 257.124 374.415 260.021 373.527 262.807C373.507 262.872 373.486 262.935 373.464 263H368.029C368.035 262.942 368.041 262.878 368.046 262.807C368.409 258.646 370.498 233.329 368 229C368.219 229.351 375.405 240.984 374.982 254.202Z" fill="#E6E6E6"/>
<path d="M374.481 262.813C374.432 262.875 374.382 262.938 374.331 263H370C370.033 262.947 370.071 262.886 370.115 262.813C370.83 261.635 372.948 258.115 374.914 254.466C377.026 250.544 378.965 246.473 378.801 245C378.852 245.332 380.313 255.461 374.481 262.813Z" fill="#E6E6E6"/>
<path d="M257.932 168H3.06776C2.25444 167.999 1.4747 167.676 0.899592 167.102C0.324484 166.528 0.00096372 165.749 0 164.937V3.06263C0.000856843 2.25063 0.324344 1.47214 0.899475 0.897969C1.47461 0.323801 2.25441 0.000855409 3.06776 0H257.932C258.746 0.000855409 259.525 0.323801 260.101 0.897969C260.676 1.47214 260.999 2.25063 261 3.06263V164.937C260.999 165.749 260.676 166.528 260.1 167.102C259.525 167.676 258.746 167.999 257.932 168ZM3.06776 1.2118C2.57624 1.21234 2.10499 1.4075 1.75743 1.75448C1.40986 2.10147 1.21437 2.57192 1.21384 3.06263V164.937C1.21437 165.428 1.40986 165.899 1.75743 166.245C2.10499 166.592 2.57624 166.788 3.06776 166.788H257.932C258.424 166.788 258.895 166.592 259.243 166.245C259.59 165.899 259.786 165.428 259.786 164.937V3.06263C259.786 2.57192 259.59 2.10147 259.243 1.75448C258.895 1.4075 258.424 1.21234 257.932 1.2118H3.06776Z" fill="#E6E6E6"/>
<path d="M191.499 24H56.5006C55.8376 24.0007 55.202 24.2635 54.7332 24.7306C54.2644 25.1977 54.0007 25.831 54 26.4915V141.508C54.0007 142.169 54.2644 142.802 54.7332 143.269C55.202 143.737 55.8376 143.999 56.5006 144H191.499C192.162 143.999 192.798 143.737 193.267 143.269C193.736 142.802 193.999 142.169 194 141.508V26.4915C193.999 25.831 193.736 25.1977 193.267 24.7306C192.798 24.2635 192.162 24.0007 191.499 24ZM192.996 141.509C192.996 141.905 192.838 142.285 192.558 142.565C192.277 142.846 191.897 143.005 191.499 143.007H56.5006C56.1029 143.005 55.7219 142.847 55.4413 142.566C55.1607 142.285 55.0034 141.905 55.004 141.509V26.4915C55.0034 26.0953 55.1607 25.715 55.4413 25.4342C55.7219 25.1534 56.1029 24.995 56.5006 24.9939H191.499C191.897 24.9958 192.277 25.1544 192.558 25.435C192.838 25.7157 192.996 26.0955 192.996 26.4915V141.509Z" fill="#3F3D56"/>
<path d="M88 124.002C88 124.177 87.995 124.352 87.9854 124.522C87.8446 127.08 86.6785 129.49 84.7276 131.253C82.7766 133.017 80.1896 134 77.5 134C74.8104 134 72.2234 133.017 70.2724 131.253C68.3215 129.49 67.1554 127.08 67.0146 124.522C67.005 124.352 67 124.177 67 124.002C67 121.349 68.1062 118.805 70.0753 116.929C72.0444 115.054 74.7151 114 77.4998 114C80.2845 114 82.9552 115.054 84.9243 116.929C86.8934 118.805 87.9996 121.349 87.9996 124.002H88Z" fill="#6C63FF"/>
<path d="M181.228 117.001H100.646C100.204 117.016 99.7854 117.18 99.4785 117.46C99.1715 117.739 99 118.112 99 118.5C99 118.888 99.1715 119.261 99.4785 119.541C99.7854 119.82 100.204 119.984 100.646 119.999H181.228C181.681 120.013 182.121 119.869 182.453 119.599C182.786 119.329 182.982 118.954 182.999 118.557C183.016 118.159 182.853 117.773 182.545 117.481C182.237 117.189 181.81 117.017 181.357 117.001C181.314 117 181.271 117 181.228 117.001Z" fill="#E1001E" fill-opacity="0.5"/>
<path d="M135.294 128H100.703C100.251 128 99.8183 128.105 99.4988 128.293C99.1794 128.48 99 128.735 99 129C99 129.265 99.1794 129.52 99.4988 129.707C99.8183 129.895 100.251 130 100.703 130H135.294C135.746 130 136.179 129.896 136.499 129.708C136.819 129.521 136.999 129.267 137 129.002C137.001 128.736 136.822 128.482 136.503 128.294C136.184 128.106 135.751 128 135.3 128H135.294Z" fill="#E6E6E6"/>
<path d="M224.144 104H88.8574C88.0998 103.999 87.3735 103.703 86.8379 103.176C86.3022 102.649 86.0009 101.935 86 101.19V42.8097C86.0009 42.0648 86.3022 41.3506 86.8379 40.8239C87.3735 40.2971 88.0998 40.0008 88.8574 40H224.143C224.9 40.0008 225.626 40.2971 226.162 40.8239C226.698 41.3506 226.999 42.0648 227 42.8097V101.189C227 101.934 226.699 102.648 226.163 103.175C225.628 103.702 224.902 103.999 224.144 104Z" fill="#E1001E"/>
<path d="M115.786 61.0014C115.332 60.9841 114.89 61.1253 114.555 61.3941C114.22 61.6628 114.021 62.0371 114.002 62.4345C113.982 62.832 114.143 63.2201 114.449 63.5134C114.756 63.8067 115.183 63.9812 115.636 63.9986C115.686 64.0005 115.736 64.0005 115.786 63.9986H196.364C196.804 63.9817 197.22 63.8164 197.525 63.5373C197.83 63.2581 198 62.8865 198 62.5C198 62.1135 197.83 61.7419 197.525 61.4627C197.22 61.1835 196.804 61.0183 196.364 61.0014H115.786Z" fill="white"/>
<path d="M115.786 70.0019C115.332 69.9788 114.89 70.1671 114.555 70.5254C114.22 70.8838 114.021 71.3828 114.002 71.9127C113.982 72.4427 114.143 72.9601 114.449 73.3512C114.756 73.7422 115.183 73.9749 115.636 73.9981C115.686 74.0006 115.736 74.0006 115.786 73.9981H196.364C196.804 73.9756 197.22 73.7553 197.525 73.383C197.83 73.0108 198 72.5153 198 72C198 71.4847 197.83 70.9892 197.525 70.617C197.22 70.2447 196.804 70.0244 196.364 70.0019H115.786Z" fill="white"/>
<path d="M116.632 80.0014C116.193 80.0183 115.778 80.1835 115.474 80.4627C115.17 80.7419 115 81.1135 115 81.5C115 81.8865 115.17 82.2581 115.474 82.5373C115.778 82.8165 116.193 82.9817 116.632 82.9986H151.219C151.443 83.0072 151.666 82.9769 151.877 82.9095C152.088 82.8422 152.281 82.739 152.446 82.6059C152.612 82.4729 152.745 82.3125 152.84 82.134C152.935 81.9554 152.989 81.7623 152.998 81.5655C153.008 81.3687 152.974 81.1721 152.897 80.987C152.82 80.8019 152.703 80.6319 152.552 80.4866C152.4 80.3414 152.218 80.2238 152.015 80.1405C151.812 80.0573 151.592 80.01 151.368 80.0014C151.318 79.9995 151.269 79.9995 151.219 80.0014H116.632Z" fill="white"/>
<path d="M11 11C12.1046 11 13 9.88071 13 8.5C13 7.11929 12.1046 6 11 6C9.89543 6 9 7.11929 9 8.5C9 9.88071 9.89543 11 11 11Z" fill="#E1001E"/>
<path d="M18 11C19.1046 11 20 9.88071 20 8.5C20 7.11929 19.1046 6 18 6C16.8954 6 16 7.11929 16 8.5C16 9.88071 16.8954 11 18 11Z" fill="#E1001E"/>
<path d="M25 11C26.1046 11 27 9.88071 27 8.5C27 7.11929 26.1046 6 25 6C23.8954 6 23 7.11929 23 8.5C23 9.88071 23.8954 11 25 11Z" fill="#E1001E"/>
<path d="M307 100C311.971 100 316 95.9706 316 91C316 86.0294 311.971 82 307 82C302.029 82 298 86.0294 298 91C298 95.9706 302.029 100 307 100Z" fill="#FFB8B8"/>
<path d="M288 140.496L312.815 145C321.181 130.049 325.795 116.548 318.009 107.845L303.293 107C293.89 116.809 285.937 126.328 291.341 133.179L288 140.496Z" fill="#E1001E"/>
<path d="M309.542 129.116C315.462 131.33 320.957 129.406 326 123.096L318.525 109L309 110.845L309.542 129.116Z" fill="#6C63FF"/>
<path d="M285.763 255L295.517 254.496L301.828 188.143L333.959 254.137L344 253.849L324.781 195.924C324.022 176.598 323.229 157.324 315.027 148.951L312.158 142.899L289.207 138L286.052 144.052C278.735 161.214 283.031 210.25 285.763 255Z" fill="#2E294E"/>
<path d="M297.399 123L289.477 145.043L275.111 165.996C274.19 166.058 273.311 166.415 272.599 167.017C271.886 167.62 271.377 168.437 271.143 169.352C270.91 170.268 270.963 171.235 271.296 172.118C271.628 173.001 272.224 173.754 272.998 174.27C273.772 174.786 274.684 175.04 275.607 174.995C276.529 174.95 277.414 174.608 278.136 174.019C278.858 173.429 279.381 172.621 279.63 171.71C279.88 170.799 279.843 169.83 279.525 168.942L279.856 169.112L298.248 149.973L309 124.74L297.399 123Z" fill="#FFB8B8"/>
<path d="M296 123.007C300.106 127.506 305.742 128.247 313 125.007V109.572L303.914 107L296 123.007Z" fill="#E1001E"/>
<path d="M336.316 116.7C334.9 114.921 332.924 113.699 331.009 112.482C329.093 111.266 327.147 109.973 325.845 108.109C323.768 105.135 323.669 101.223 323.979 97.6034C324.289 93.9841 324.923 90.2871 324.045 86.7628C322.883 82.1007 319.036 78.326 314.491 76.8207C309.945 75.3154 304.833 75.958 300.558 78.1175L301.733 77.0035C300.796 77.1973 299.941 77.6746 299.283 78.3711C298.626 79.0676 298.196 79.9499 298.053 80.8991C297.91 81.8482 298.059 82.8186 298.482 83.6796C298.905 84.5406 299.581 85.2507 300.418 85.7144C302.347 86.7825 304.975 86.4765 306.524 88.0466C308.05 89.5946 307.73 92.1354 307.179 94.2417C305.754 99.6944 303.494 104.943 302.71 110.524C301.928 116.105 302.917 122.358 307.041 126.183C310.072 128.994 314.379 130.079 318.505 129.996C322.63 129.913 326.656 128.779 330.625 127.652C333.41 126.862 336.551 125.766 337.642 123.074C338.496 120.967 337.732 118.478 336.316 116.7Z" fill="#2F2E41"/>
<path d="M296 263L275 262.999V262.716C275 260.404 275.861 258.187 277.394 256.553C278.927 254.918 281.006 254 283.174 254H283.174L296 254.001L296 263Z" fill="#2F2E41"/>
<path d="M345 262L324 261.999V261.716C324 259.404 324.861 257.187 326.394 255.553C327.927 253.918 330.006 253 332.174 253H332.174L345 253.001L345 262Z" fill="#2F2E41"/>
<path d="M282.951 19.0941L280.003 17.3582C279.963 15.501 280.357 13.6617 281.152 12C281.832 15.2251 285.408 16.7595 287.059 19.5754C287.567 20.4578 287.879 21.4484 287.971 22.4739C288.063 23.4994 287.934 24.5335 287.592 25.4995L287.786 28C286.262 27.5229 284.856 26.7062 283.663 25.606C282.47 24.5059 281.52 23.1485 280.878 21.6275C280.525 20.7704 280.277 19.8704 280.14 18.9486C281.515 19.1015 282.951 19.0941 282.951 19.0941Z" fill="#F2F2F2"/>
<path d="M320.05 23H286.95C286.433 23.0005 285.938 23.1936 285.572 23.5367C285.206 23.8799 285.001 24.3452 285 24.8304V44.1695C285.001 44.6548 285.206 45.1201 285.572 45.4633C285.938 45.8064 286.433 45.9994 286.95 46H320.049C320.567 45.9995 321.062 45.8064 321.428 45.4633C321.794 45.1201 321.999 44.6548 322 44.1695V24.8304C321.999 24.3451 321.794 23.8799 321.428 23.5367C321.062 23.1936 320.567 23.0005 320.05 23Z" fill="#E1001E"/>
<path d="M320.05 23H286.95C286.433 23.0005 285.938 23.1936 285.572 23.5367C285.206 23.8799 285.001 24.3452 285 24.8304V44.1695C285.001 44.6548 285.206 45.1201 285.572 45.4633C285.938 45.8064 286.433 45.9994 286.95 46H320.049C320.567 45.9995 321.062 45.8064 321.428 45.4633C321.794 45.1201 321.999 44.6548 322 44.1695V24.8304C321.999 24.3451 321.794 23.8799 321.428 23.5367C321.062 23.1936 320.567 23.0005 320.05 23ZM320.69 36.8915C320.682 38.8603 319.852 40.7479 318.378 42.1491C316.904 43.5504 314.904 44.3537 312.806 44.3869C309.448 44.4279 314.665 44.4439 310.614 44.4439C301.352 44.4439 291.694 44.3608 288.09 44.307C287.616 44.2978 287.164 44.115 286.832 43.7977C286.499 43.4804 286.312 43.0537 286.31 42.6087V24.8319C286.311 24.6725 286.378 24.5197 286.498 24.4069C286.618 24.2941 286.781 24.2304 286.95 24.2298H320.048C320.218 24.23 320.381 24.2933 320.501 24.4058C320.621 24.5183 320.689 24.6709 320.69 24.8303V36.8915Z" fill="#3F3D56"/>
<path d="M316.368 10H291.84C291.623 10.0003 291.412 10.0687 291.234 10.1958C291.057 10.3229 290.922 10.5026 290.849 10.7102L287.061 21.5124C287.005 21.6736 286.987 21.8463 287.01 22.0159C287.032 22.1855 287.095 22.347 287.192 22.487C287.289 22.6269 287.417 22.7412 287.567 22.8201C287.716 22.8991 287.882 22.9404 288.051 22.9407L320.947 23H320.948C321.122 23 321.293 22.9561 321.447 22.8722C321.6 22.7883 321.73 22.6671 321.826 22.5193C321.922 22.3716 321.98 22.202 321.996 22.0258C322.011 21.8495 321.984 21.6722 321.915 21.5095L317.335 10.6481C317.254 10.4556 317.119 10.2916 316.947 10.1764C316.775 10.0612 316.574 9.99984 316.368 10Z" fill="#3F3D56"/>
<path d="M322 22.1207C322 22.2724 321.971 22.4226 321.915 22.5621L317.335 31.3218C317.254 31.5229 317.119 31.6943 316.947 31.8148C316.775 31.9354 316.574 31.9997 316.368 32H291.84C291.623 31.9998 291.412 31.9282 291.234 31.7951C291.057 31.662 290.922 31.4738 290.849 31.2563L287.061 22.559C287.015 22.4205 286.994 22.2735 287.001 22.1266C287.008 21.9797 287.042 21.8356 287.102 21.7027C287.161 21.5698 287.244 21.4507 287.347 21.352C287.449 21.2534 287.569 21.1773 287.699 21.128C287.812 21.0847 287.93 21.0625 288.05 21.0625L292.068 21.0544L293.709 21.0514L315.29 21.0111L316.931 21.0081L320.947 21H320.948C321.227 21 321.494 21.1181 321.692 21.3283C321.889 21.5384 322 21.8235 322 22.1207Z" fill="#3F3D56"/>
<path d="M289.876 38C290.359 38 297 38.2318 297 38.5079C297 38.784 290.359 39 289.876 39C289.643 39 289.421 38.9473 289.256 38.8536C289.092 38.7598 289 38.6326 289 38.5C289 38.3674 289.092 38.2402 289.256 38.1464C289.421 38.0527 289.643 38 289.876 38Z" fill="#3F3D56"/>
<path d="M314.898 4H294.102C293.545 4.00066 293.01 4.22679 292.616 4.62879C292.222 5.0308 292.001 5.57584 292 6.14436V32H316.434C316.634 32.0006 316.831 31.9423 317 31.8321V6.14436C316.999 5.57584 316.778 5.0308 316.384 4.6288C315.99 4.22679 315.455 4.00066 314.898 4Z" fill="#E6E6E6"/>
<path d="M306.495 5H294.941C294.427 5.00052 293.933 5.21211 293.569 5.58837C293.206 5.96463 293.001 6.47483 293 7.00706V32H315V13.7987C314.997 11.466 314.1 9.22956 312.506 7.58006C310.912 5.93056 308.75 5.00269 306.495 5Z" fill="white"/>
<path d="M311.541 27H297.459C297.338 27 297.221 27.0527 297.135 27.1464C297.048 27.2402 297 27.3674 297 27.5C297 27.6326 297.048 27.7598 297.135 27.8536C297.221 27.9473 297.338 28 297.459 28H311.541C311.662 28 311.779 27.9473 311.865 27.8536C311.952 27.7598 312 27.6326 312 27.5C312 27.3674 311.952 27.2402 311.865 27.1464C311.779 27.0527 311.662 27 311.541 27Z" fill="#E1001E" fill-opacity="0.28"/>
<path d="M303.542 25H297.458C297.336 25 297.22 25.1054 297.134 25.2929C297.048 25.4804 297 25.7348 297 26C297 26.2652 297.048 26.5196 297.134 26.7071C297.22 26.8946 297.336 27 297.458 27H303.542C303.664 27 303.78 26.8946 303.866 26.7071C303.952 26.5196 304 26.2652 304 26C304 25.7348 303.952 25.4804 303.866 25.2929C303.78 25.1054 303.664 25 303.542 25Z" fill="#E1001E" fill-opacity="0.28"/>
<path d="M311.541 22H297.459C297.338 22 297.221 22.0527 297.135 22.1464C297.048 22.2402 297 22.3674 297 22.5C297 22.6326 297.048 22.7598 297.135 22.8536C297.221 22.9473 297.338 23 297.459 23H311.541C311.662 23 311.779 22.9473 311.865 22.8536C311.952 22.7598 312 22.6326 312 22.5C312 22.3674 311.952 22.2402 311.865 22.1464C311.779 22.0527 311.662 22 311.541 22Z" fill="#E1001E" fill-opacity="0.28"/>
<path d="M311.541 19H297.459C297.337 19 297.221 19.1054 297.134 19.2929C297.048 19.4804 297 19.7348 297 20C297 20.2652 297.048 20.5196 297.134 20.7071C297.221 20.8946 297.337 21 297.459 21H311.541C311.663 21 311.779 20.8946 311.866 20.7071C311.952 20.5196 312 20.2652 312 20C312 19.7348 311.952 19.4804 311.866 19.2929C311.779 19.1054 311.663 19 311.541 19Z" fill="#E1001E" fill-opacity="0.28"/>
<path d="M303.542 18H297.458C297.336 18 297.22 18.0527 297.134 18.1464C297.048 18.2402 297 18.3674 297 18.5C297 18.6326 297.048 18.7598 297.134 18.8536C297.22 18.9473 297.336 19 297.458 19H303.542C303.664 19 303.78 18.9473 303.866 18.8536C303.952 18.7598 304 18.6326 304 18.5C304 18.3674 303.952 18.2402 303.866 18.1464C303.78 18.0527 303.664 18 303.542 18Z" fill="#E1001E" fill-opacity="0.28"/>
<path d="M311.541 12H297.459C297.338 12 297.221 12.0527 297.135 12.1464C297.048 12.2402 297 12.3674 297 12.5C297 12.6326 297.048 12.7598 297.135 12.8536C297.221 12.9473 297.338 13 297.459 13H311.541C311.662 13 311.779 12.9473 311.865 12.8536C311.952 12.7598 312 12.6326 312 12.5C312 12.3674 311.952 12.2402 311.865 12.1464C311.779 12.0527 311.662 12 311.541 12Z" fill="#E1001E"/>
<path d="M303.542 10H297.458C297.336 10 297.22 10.0527 297.134 10.1464C297.048 10.2402 297 10.3674 297 10.5C297 10.6326 297.048 10.7598 297.134 10.8536C297.22 10.9473 297.336 11 297.458 11H303.542C303.664 11 303.78 10.9473 303.866 10.8536C303.952 10.7598 304 10.6326 304 10.5C304 10.3674 303.952 10.2402 303.866 10.1464C303.78 10.0527 303.664 10 303.542 10Z" fill="#E1001E"/>
<path d="M316 7C318.209 7 320 5.433 320 3.5C320 1.567 318.209 0 316 0C313.791 0 312 1.567 312 3.5C312 5.433 313.791 7 316 7Z" fill="#69995D"/>
<path d="M315.476 6C315.41 6 315.344 5.98455 315.285 5.95486C315.226 5.92518 315.174 5.88208 315.134 5.82898L314.086 4.43115C314.052 4.38626 314.028 4.33513 314.014 4.28068C314 4.22624 313.996 4.16955 314.004 4.11388C314.012 4.0582 314.031 4.00463 314.059 3.95622C314.088 3.90782 314.126 3.86554 314.171 3.8318C314.216 3.79806 314.267 3.77353 314.322 3.75962C314.376 3.7457 314.433 3.74267 314.488 3.7507C314.544 3.75873 314.598 3.77766 314.646 3.80641C314.694 3.83516 314.736 3.87317 314.77 3.91824L315.456 4.83267L317.217 2.19035C317.28 2.09602 317.378 2.03054 317.489 2.0083C317.6 1.98607 317.715 2.00891 317.81 2.07179C317.904 2.13468 317.969 2.23246 317.992 2.34363C318.014 2.4548 317.991 2.57024 317.928 2.66457L315.832 5.80965C315.794 5.86653 315.743 5.91348 315.683 5.94658C315.623 5.97968 315.556 5.99795 315.488 5.99986C315.484 5.99993 315.48 6 315.476 6Z" fill="white"/>
<path d="M326.257 36.9145L326.479 31.9089C328.794 30.6684 331.375 30.0131 334 30C330.388 32.961 330.839 38.6688 328.39 42.6506C327.617 43.8866 326.576 44.9323 325.345 45.7102C324.114 46.4881 322.724 46.9783 321.278 47.1444L318.255 49C317.841 46.6816 317.932 44.3006 318.523 42.021C319.115 39.7415 320.192 37.6175 321.681 35.7956C322.526 34.7818 323.496 33.8787 324.566 33.1078C325.29 35.0218 326.257 36.9145 326.257 36.9145Z" fill="#F2F2F2"/>
<path d="M72.5825 217L72.5106 215.944C74.5775 215.804 76.6498 215.521 78.6699 215.104L78.8846 216.14C76.8175 216.567 74.6973 216.856 72.5825 217ZM66.2147 216.906C64.0766 216.714 61.9632 216.408 59.9332 215.997L60.1438 214.96C62.1357 215.363 64.2104 215.664 66.3099 215.852L66.2147 216.906ZM85.0111 214.427L84.6557 213.43C86.6031 212.738 88.5207 211.904 90.3561 210.952L90.8445 211.891C88.9665 212.866 87.0038 213.718 85.0111 214.427ZM53.7949 214.36C51.7652 213.68 49.7865 212.869 47.9139 211.946L48.3821 210.998C50.2126 211.898 52.1468 212.692 54.1317 213.357L53.7949 214.36ZM42.4207 208.741C40.6714 207.543 38.9985 206.208 37.4487 204.773L38.1694 203.997C39.6812 205.397 41.3132 206.7 43.0198 207.868L42.4207 208.741ZM96.2738 208.586L95.6618 207.722C97.3494 206.53 98.9709 205.21 100.481 203.801L101.204 204.574C99.6595 206.016 98.0006 207.366 96.2738 208.586ZM33.1108 200.113C31.7925 198.47 30.5772 196.708 29.499 194.876L30.4127 194.34C31.465 196.128 32.6511 197.848 33.9375 199.452L33.1108 200.113ZM105.547 199.932L104.726 199.264C106.033 197.661 107.241 195.955 108.316 194.193L109.221 194.744C108.121 196.546 106.885 198.292 105.547 199.932ZM26.6653 189.186C25.8611 187.246 25.1774 185.221 24.6334 183.167L25.6577 182.896C26.1896 184.905 26.8581 186.885 27.6442 188.781L26.6653 189.186ZM112.152 189.104L111.181 188.681C112.006 186.788 112.706 184.819 113.264 182.828L114.284 183.113C113.714 185.15 112.997 187.166 112.152 189.104ZM23.4111 176.934C23.1402 174.843 23.0018 172.711 23 170.597L24.0596 170.596C24.0614 172.665 24.1967 174.752 24.4618 176.798L23.4111 176.934ZM115.572 176.892L114.522 176.749C114.8 174.71 114.94 172.626 114.94 170.555L114.94 170.459H116L116 170.551C116 172.674 115.856 174.806 115.572 176.892ZM24.4512 164.394L23.3999 164.259C23.6687 162.157 24.0761 160.06 24.6111 158.025L25.636 158.294C25.1127 160.284 24.7141 162.337 24.4512 164.394ZM114.509 164.267C114.226 162.22 113.798 160.176 113.238 158.191L114.258 157.904C114.831 159.935 115.269 162.028 115.559 164.123L114.509 164.267ZM27.6116 152.406L26.6317 152.003C27.4422 150.038 28.3916 148.123 29.4532 146.311L30.3679 146.845C29.3306 148.615 28.4032 150.486 27.6116 152.406ZM111.145 152.346C110.318 150.458 109.351 148.607 108.272 146.845L109.176 146.293C110.281 148.096 111.27 149.99 112.116 151.922L111.145 152.346ZM104.675 141.784C103.367 140.186 101.936 138.662 100.423 137.255L101.145 136.48C102.693 137.92 104.157 139.48 105.495 141.114L104.675 141.784ZM33.8812 141.728L33.0528 141.069C34.3765 139.412 35.8314 137.842 37.3765 136.404L38.0993 137.178C36.5917 138.581 35.1725 140.112 33.8812 141.728ZM95.5948 133.341C93.9019 132.15 92.1134 131.065 90.2785 130.118L90.7654 129.178C92.6429 130.148 94.4731 131.257 96.2053 132.476L95.5948 133.341ZM42.9406 133.296L42.3394 132.424C44.0703 131.234 45.916 130.151 47.8254 129.206L48.2962 130.154C46.4316 131.077 44.6299 132.134 42.9406 133.296ZM54.0406 127.783L53.7017 126.78C55.6693 126.117 57.7336 125.563 59.8373 125.132L60.0499 126.169C57.989 126.59 55.9671 127.133 54.0406 127.783ZM84.5706 127.65C82.6214 126.961 80.6047 126.402 78.5766 125.987L78.7892 124.95C80.8649 125.375 82.929 125.948 84.924 126.652L84.5706 127.65ZM66.2139 125.266L66.1172 124.213C67.1778 124.116 68.2681 124.045 69.358 124.002C70.3891 123.99 71.4577 124.036 72.4847 124.103L72.4154 125.159C71.4112 125.093 70.3896 125.059 69.3789 125.059C68.3282 125.101 67.2564 125.171 66.2139 125.266Z" fill="#3F3D56"/>
<path d="M34.1332 213.092C41.983 213.092 48.3465 206.728 48.3465 198.879C48.3465 191.029 41.983 184.665 34.1332 184.665C26.2834 184.665 19.9199 191.029 19.9199 198.879C19.9199 206.728 26.2834 213.092 34.1332 213.092Z" fill="#2E294E"/>
<path d="M28.5703 194.113C28.5703 193.673 28.9361 193.316 29.3873 193.316H38.8786C39.3299 193.316 39.6956 193.673 39.6956 194.113V203.644C39.6956 204.085 39.3299 204.441 38.8786 204.441H29.3873C28.9361 204.441 28.5703 204.084 28.5703 203.644V194.113ZM32.0073 202.629V197.605H30.3379V202.629H32.0073ZM31.1729 196.919C31.7549 196.919 32.1172 196.534 32.1172 196.051C32.1068 195.558 31.7556 195.184 31.1841 195.184C30.6125 195.184 30.2391 195.559 30.2391 196.051C30.2391 196.534 30.6014 196.919 31.1618 196.919H31.1729ZM34.5856 202.629V199.824C34.5856 199.673 34.5968 199.523 34.6413 199.416C34.7616 199.116 35.0362 198.806 35.4979 198.806C36.1022 198.806 36.3434 199.266 36.3434 199.942V202.629H38.0129V199.748C38.0129 198.204 37.1897 197.486 36.091 197.486C35.2052 197.486 34.8081 197.973 34.5856 198.316V198.333H34.5745L34.5856 198.316V197.605H32.9168C32.9377 198.077 32.9168 202.629 32.9168 202.629H34.5856Z" fill="white"/>
<path d="M75.5 138C83.5081 138 90 131.732 90 124C90 116.268 83.5081 110 75.5 110C67.4919 110 61 116.268 61 124C61 131.732 67.4919 138 75.5 138Z" fill="#2E294E"/>
<path d="M30.3676 161.159C38.2174 161.159 44.5809 154.795 44.5809 146.946C44.5809 139.096 38.2174 132.732 30.3676 132.732C22.5178 132.732 16.1543 139.096 16.1543 146.946C16.1543 154.795 22.5178 161.159 30.3676 161.159Z" fill="#2E294E"/>
<path d="M28.0739 151.96C32.7311 151.96 35.2787 148.101 35.2787 144.76C35.2787 144.652 35.2787 144.543 35.2741 144.435C35.7701 144.076 36.1981 143.631 36.5383 143.122C36.0749 143.326 35.584 143.461 35.0812 143.521C35.6108 143.205 36.0074 142.707 36.1973 142.12C35.6998 142.415 35.1553 142.622 34.5876 142.732C33.6294 141.711 32.0255 141.661 31.005 142.619C30.346 143.238 30.0665 144.16 30.2713 145.041C28.2353 144.939 26.3383 143.977 25.0519 142.396C24.3817 143.554 24.7253 145.032 25.8371 145.776C25.4356 145.762 25.043 145.654 24.6909 145.461V145.496C24.6923 146.7 25.5407 147.738 26.721 147.978C26.5037 148.038 26.2792 148.068 26.0538 148.067C25.8949 148.067 25.7363 148.052 25.5802 148.023C25.912 149.054 26.8628 149.76 27.9458 149.779C27.0485 150.484 25.94 150.866 24.7989 150.864C24.5978 150.865 24.3969 150.854 24.1973 150.83C25.3554 151.568 26.7004 151.96 28.0739 151.96Z" fill="white"/>
<path d="M81.5 229C89.5081 229 96 222.508 96 214.5C96 206.492 89.5081 200 81.5 200C73.4919 200 67 206.492 67 214.5C67 222.508 73.4919 229 81.5 229Z" fill="#3F3D56"/>
<path d="M81.5 208C79.7361 208 79.5143 208.008 78.8212 208.039C78.1281 208.072 77.6561 208.18 77.2425 208.341C76.8087 208.504 76.4158 208.76 76.0912 209.091C75.7606 209.416 75.5046 209.809 75.3412 210.243C75.1804 210.655 75.0707 211.128 75.039 211.819C75.0081 212.513 75 212.734 75 214.501C75 216.266 75.0081 216.487 75.039 217.18C75.0715 217.872 75.1804 218.344 75.3412 218.757C75.5078 219.185 75.7296 219.547 76.0912 219.909C76.4519 220.27 76.8143 220.493 77.2417 220.659C77.6561 220.82 78.1273 220.929 78.8196 220.961C79.5134 220.992 79.7344 221 81.5 221C83.2656 221 83.4857 220.992 84.1796 220.961C84.8711 220.928 85.3447 220.82 85.7583 220.659C86.1918 220.496 86.5845 220.24 86.9088 219.909C87.2704 219.547 87.4922 219.185 87.6588 218.757C87.8188 218.344 87.9285 217.872 87.961 217.18C87.9919 216.487 88 216.266 88 214.5C88 212.734 87.9919 212.513 87.961 211.82C87.9285 211.128 87.8188 210.655 87.6588 210.243C87.4954 209.809 87.2395 209.416 86.9088 209.091C86.5843 208.76 86.1914 208.504 85.7575 208.341C85.3431 208.18 84.8703 208.071 84.1788 208.039C83.4849 208.008 83.2647 208 81.4984 208H81.5ZM80.9174 209.172H81.5008C83.2363 209.172 83.4419 209.177 84.1268 209.209C84.7606 209.237 85.1051 209.344 85.3342 209.432C85.6373 209.55 85.8542 209.692 86.0817 209.919C86.3092 210.147 86.4497 210.363 86.5676 210.667C86.6569 210.895 86.7626 211.239 86.791 211.873C86.8227 212.558 86.8292 212.764 86.8292 214.498C86.8292 216.233 86.8227 216.439 86.791 217.124C86.7626 217.758 86.6561 218.102 86.5676 218.331C86.4634 218.613 86.297 218.868 86.0809 219.078C85.8534 219.305 85.6373 219.446 85.3334 219.563C85.1059 219.653 84.7614 219.758 84.1268 219.788C83.4419 219.819 83.2363 219.826 81.5008 219.826C79.7653 219.826 79.5589 219.819 78.874 219.788C78.2402 219.758 77.8966 219.653 77.6674 219.563C77.3851 219.459 77.1297 219.293 76.9199 219.078C76.7036 218.868 76.537 218.613 76.4324 218.33C76.3439 218.102 76.2374 217.757 76.209 217.124C76.1781 216.439 76.1716 216.233 76.1716 214.497C76.1716 212.761 76.1781 212.556 76.209 211.872C76.2382 211.238 76.3439 210.893 76.4332 210.664C76.5511 210.361 76.6924 210.144 76.9199 209.917C77.1474 209.689 77.3636 209.549 77.6674 209.431C77.8966 209.341 78.2402 209.236 78.874 209.207C79.4736 209.179 79.706 209.171 80.9174 209.17L80.9174 209.172ZM84.9702 210.251C84.5394 210.251 84.1902 210.6 84.1902 211.031C84.1902 211.461 84.5394 211.811 84.9702 211.811C85.401 211.811 85.7502 211.461 85.7502 211.031C85.7502 210.6 85.401 210.251 84.9702 210.251ZM81.5008 211.162C79.6572 211.133 78.1393 212.605 78.1106 214.448C78.0818 216.292 79.553 217.81 81.3966 217.839C81.4314 217.839 81.4661 217.839 81.5008 217.839C83.3444 217.81 84.8157 216.292 84.7869 214.448C84.7587 212.645 83.3039 211.19 81.5008 211.162ZM81.5008 212.333C82.6976 212.333 83.6682 213.302 83.6687 214.499C83.6692 215.696 82.6994 216.666 81.5026 216.667H81.5008C80.304 216.667 79.3339 215.697 79.3339 214.5C79.3339 213.303 80.304 212.333 81.5008 212.333Z" fill="white"/>
<path d="M69.5 130C69.0875 130 68.7344 129.853 68.4406 129.559C68.1469 129.266 68 128.913 68 128.5V119.5C68 119.087 68.1469 118.734 68.4406 118.441C68.7344 118.147 69.0875 118 69.5 118H81.5C81.9125 118 82.2656 118.147 82.5594 118.441C82.8531 118.734 83 119.087 83 119.5V128.5C83 128.913 82.8531 129.266 82.5594 129.559C82.2656 129.853 81.9125 130 81.5 130H69.5ZM75.5 124.75L69.5 121V128.5H81.5V121L75.5 124.75ZM75.5 123.25L81.5 119.5H69.5L75.5 123.25ZM69.5 121V119.5V128.5V121Z" fill="#FDFBFB"/>
</svg>
