<svg width="48" height="48" viewBox="0 0 48 48" fill="none" xmlns="http://www.w3.org/2000/svg">
<g id="search">
<mask id="mask0_226_2755" style="mask-type:alpha" maskUnits="userSpaceOnUse" x="0" y="0" width="48" height="48">
<rect id="Bounding box" width="48" height="48" fill="#D9D9D9"/>
</mask>
<g mask="url(#mask0_226_2755)">
<path id="search_2" d="M31.0479 32.0044L24.1984 25.7029C23.6548 26.103 23.0296 26.4197 22.3229 26.6531C21.6162 26.8865 20.8642 27.0032 20.0669 27.0032C18.0918 27.0032 16.4202 26.3739 15.0521 25.1152C13.684 23.8566 13 22.3187 13 20.5016C13 18.6845 13.684 17.1466 15.0521 15.888C16.4202 14.6293 18.0918 14 20.0669 14C22.0421 14 23.7137 14.6293 25.0818 15.888C26.4498 17.1466 27.1339 18.6845 27.1339 20.5016C27.1339 21.2351 27.007 21.9269 26.7534 22.5771C26.4997 23.2273 26.1554 23.8024 25.7205 24.3025L32.57 30.6041L31.0479 32.0044ZM20.0669 25.0027C21.426 25.0027 22.5811 24.5651 23.5325 23.6899C24.4838 22.8147 24.9594 21.7519 24.9594 20.5016C24.9594 19.2513 24.4838 18.1885 23.5325 17.3133C22.5811 16.4381 21.426 16.0005 20.0669 16.0005C18.7079 16.0005 17.5527 16.4381 16.6014 17.3133C15.6501 18.1885 15.1744 19.2513 15.1744 20.5016C15.1744 21.7519 15.6501 22.8147 16.6014 23.6899C17.5527 24.5651 18.7079 25.0027 20.0669 25.0027Z" fill="black"/>
</g>
</g>
</svg>
